<svg width="222.808" height="373.029" viewBox="0 0 58.951 98.697" xmlns="http://www.w3.org/2000/svg"><path style="color:#000;fill:#fff;stroke-linejoin:round;-inkscape-stroke:none" d="M361.564 284.629a38.28 38.28 0 0 0-12.492 4.547l-162.385 93.752a38.28 38.28 0 0 0-19.138 33.148v187.506a38.28 38.28 0 0 0 19.139 33.148l162.384 93.754a38.28 38.28 0 0 0 38.276 0l162.386-93.754a38.28 38.28 0 0 0 19.137-33.148V416.076a38.28 38.28 0 0 0-19.137-33.148l-162.386-93.752a38.28 38.28 0 0 0-25.784-4.547zm6.647 81.892 124.11 71.655v143.308L368.21 653.14 244.1 581.484V438.176Z" transform="translate(-24.61 -25.54) scale(.14689)"/><path style="color:#000;fill:#fff;stroke-linecap:round;stroke-linejoin:round;-inkscape-stroke:none" d="M126.027 189.19a5.622 5.622 0 0 0-5.623 5.62v29.956a5.622 5.622 0 0 0 5.623 5.623 5.622 5.622 0 0 0 5.623-5.623V194.81a5.622 5.622 0 0 0-5.623-5.622zM147.111 175.418a5.622 5.622 0 0 0-5.623 5.621 5.622 5.622 0 0 0 5.623 5.623h25.973a5.622 5.622 0 0 0 5.621-5.623 5.622 5.622 0 0 0-5.621-5.621zM173.732 131.691c-1.6 0-5.621 2.519-5.62 5.623v29.954a5.622 5.622 0 1 0 11.243 0v-29.954a5.622 5.622 0 0 0-5.623-5.623z" transform="translate(-120.404 -131.691)"/></svg>