<svg xmlns="http://www.w3.org/2000/svg" width="512" height="512" viewBox="0 0 135.467 135.467"><path style="opacity:.98999999;vector-effect:none;fill:#e5e5cf;fill-opacity:1;stroke:none;stroke-width:2.4000001;stroke-linecap:butt;stroke-linejoin:miter;stroke-miterlimit:4;stroke-dasharray:none;stroke-dashoffset:0;stroke-opacity:1" d="M47.164 112.094a10.553 10.553 0 0 0-10.576 10.576v114.315c0 5.859 4.717 10.576 10.576 10.576H161.48c5.859 0 10.576-4.717 10.576-10.576V122.67c0-5.86-4.717-10.576-10.576-10.576zm56.546 7.385c7.938-.068 15.89 1.3 22.946 4.059 14.47 5.658 26.114 16.27 33.078 30.153 3.183 6.342 5.109 12.702 6.08 20.076.382 2.895.378 11.961-.005 14.998-1.21 9.592-4.38 18.335-9.462 26.086-7.335 11.191-17.284 19.352-29.402 24.118-3.738 1.47-5.077 1.557-6.232.403l-.783-.784-.147-10.941c-.156-11.712-.217-12.325-1.5-15.208-.319-.714-1.024-1.858-1.568-2.542l-.989-1.245 1.981-.277c6.333-.886 11.266-2.622 15.523-5.461 5.177-3.453 8.366-8.812 9.934-16.689.516-2.592.739-9.869.373-12.201-.622-3.976-2.59-8.385-5.055-11.33l-.971-1.16.594-2.048c1.056-3.636.775-8.734-.71-12.876-.472-1.314-.624-1.504-1.35-1.691-2.248-.58-8.628 1.758-14.158 5.189-1.378.854-2.116 1.17-2.552 1.095-.338-.06-1.718-.34-3.067-.625-7.716-1.626-16.166-1.626-23.881 0-1.35.285-2.736.567-3.081.627-.453.078-1.108-.198-2.345-.991-4.933-3.162-11.916-5.718-14.483-5.302-.78.127-.835.21-1.413 2.103-.936 3.07-1.173 4.638-1.155 7.641.014 2.23.138 3.187.624 4.823l.606 2.04-.932 1.104c-2.443 2.898-4.47 7.438-5.09 11.401-.366 2.335-.143 9.614.374 12.198 1.24 6.2 3.643 11.13 6.994 14.349 2.52 2.419 6.581 4.766 10.554 6.099 1.726.58 6.344 1.558 8.52 1.806l1.383.158-.942 1.192c-1.224 1.548-2.108 3.442-2.578 5.522-.367 1.627-.402 1.68-1.385 2.043-2.165.802-3.298.98-6.329.993-3.105.014-3.165.003-4.781-.807-2.094-1.05-3.905-2.798-5.562-5.366-2.4-3.722-6.048-6.343-9.275-6.668-1.857-.187-3.242.213-3.242.937 0 .55 1.944 2.518 3.656 3.7.584.404 1.638 1.492 2.344 2.42 1.15 1.512 1.73 2.58 3.853 7.093 1.164 2.474 4.089 4.752 7.323 5.703.731.215 2.854.513 4.717.662 2.767.222 3.818.207 5.745-.077l2.359-.348.059 4.245c.12 8.532.067 8.99-1.137 9.778-.637.418-1.932.633-2.793.465-1.175-.23-6.205-2.323-9.038-3.761-14.857-7.546-26.593-21.861-31.185-38.04-1.592-5.608-2.202-10.323-2.208-17.055-.004-5.524.229-7.986 1.212-12.782 4.575-22.33 21.905-40.786 43.976-46.835 5.124-1.405 10.548-2.123 15.979-2.169z" transform="translate(-36.588 -112.094)"/></svg>