<?xml version="1.0" encoding="UTF-8" standalone="no"?>
<!-- Created with Inkscape (http://www.inkscape.org/) -->

<svg
   xmlns:dc="http://purl.org/dc/elements/1.1/"
   xmlns:cc="http://creativecommons.org/ns#"
   xmlns:rdf="http://www.w3.org/1999/02/22-rdf-syntax-ns#"
   xmlns:svg="http://www.w3.org/2000/svg"
   xmlns="http://www.w3.org/2000/svg"
   xmlns:sodipodi="http://sodipodi.sourceforge.net/DTD/sodipodi-0.dtd"
   xmlns:inkscape="http://www.inkscape.org/namespaces/inkscape"
   version="1.1"
   id="svg2"
   width="512"
   height="512"
   viewBox="0 0 512 512"
   sodipodi:docname="logos.svg"
   inkscape:version="0.92.4 (5da689c313, 2019-01-14)">
  <metadata
     id="metadata8">
    <rdf:RDF>
      <cc:Work
         rdf:about="">
        <dc:format>image/svg+xml</dc:format>
        <dc:type
           rdf:resource="http://purl.org/dc/dcmitype/StillImage" />
        <dc:title></dc:title>
      </cc:Work>
    </rdf:RDF>
  </metadata>
  <defs
     id="defs6" />
  <sodipodi:namedview
     pagecolor="#ffffff"
     bordercolor="#666666"
     borderopacity="1"
     objecttolerance="10"
     gridtolerance="10"
     guidetolerance="10"
     inkscape:pageopacity="0"
     inkscape:pageshadow="2"
     inkscape:window-width="1920"
     inkscape:window-height="1017"
     id="namedview4"
     showgrid="false"
     showguides="false"
     inkscape:zoom="0.50415039"
     inkscape:cx="943.87081"
     inkscape:cy="284.33847"
     inkscape:window-x="-8"
     inkscape:window-y="363"
     inkscape:window-maximized="1"
     inkscape:current-layer="svg2" />
  <path
     style="opacity:0.98999999;vector-effect:none;fill:#e5e5cf;fill-opacity:1;stroke:none;stroke-width:9.07086658;stroke-linecap:butt;stroke-linejoin:miter;stroke-miterlimit:4;stroke-dasharray:none;stroke-dashoffset:0;stroke-opacity:1"
     d="m 20.33666,580.66445 c -22.1452149,0 -39.972656,17.82744 -39.972656,39.97266 v 432.05469 c 0,22.1452 17.8274411,39.9726 39.972656,39.9726 h 432.05468 c 22.14522,0 39.97266,-17.8274 39.97266,-39.9726 V 620.63711 c 0,-22.14522 -17.82744,-39.97266 -39.97266,-39.97266 z m 329.71875,82.59375 c 15.95661,-0.0718 31.57504,5.62811 39.86718,17.4668 5.41386,7.72937 5.31,8.45819 -2.01367,13.98242 -7.34776,5.54245 -8.21505,5.4173 -17.70312,-2.56641 -16.46861,-13.85737 -37.43151,-10.34363 -47.15039,7.9043 -6.36813,11.95662 -5.08248,56.4259 2.04492,70.69336 10.01515,20.04807 37.64526,19.25754 47.42773,-1.35742 9.05668,-19.08563 7.64649,-23 -8.28515,-23 -12.5936,0 -13.91993,-0.8445 -13.91993,-8.85938 0,-8.71794 0.37223,-8.84267 23.48829,-7.83008 l 23.48828,1.0293 -0.28907,20.93359 c -0.36311,26.28301 -6.77759,40.01327 -22.33007,47.78516 -25.92813,12.95676 -59.57361,4.47792 -71.16407,-17.93555 -8.34464,-16.13677 -7.54151,-82.00469 1.17383,-96.29687 8.76409,-14.37212 27.28107,-21.86781 45.36524,-21.94922 z m -212.625,83.12305 c 85.12268,0 108.11041,7.44016 122.78125,39.74218 15.94704,35.11186 -1.86636,78.58622 -39.21289,95.70118 l -12.75391,5.8457 19.71289,29.49609 c 30.11414,45.05828 48.41881,65.09023 67.42187,73.78907 10.66774,4.88323 16.46918,9.61513 15.84571,12.92383 -0.69013,3.6626 -6.16378,5.4809 -18.34961,6.0957 -22.0278,1.1113 -41.35893,-7.5216 -57.2207,-25.55664 -9.97956,-11.34684 -56.80482,-80.26782 -60.0625,-88.4043 -0.54736,-1.36715 -8.5502,-3.31504 -17.78516,-4.32813 l -16.79102,-1.84179 1.13282,46.41406 c 0.69174,28.35839 2.66041,47.93997 5.06054,50.33398 2.16055,2.15506 10.38044,4.78392 18.26758,5.8418 10.9972,1.47505 14.33984,3.43813 14.33984,8.42382 0,6.061 -3.55026,6.502 -52.44921,6.502 -46.506756,0 -52.323732,-0.6392 -51.326172,-5.6407 0.6188,-3.10246 6.564326,-7.4097 13.212886,-9.57027 20.042666,-6.51345 20.865236,-11.06423 20.865236,-115.2793 0,-105.57806 -0.69098,-109.22 -21.687496,-114.18555 -9.380926,-2.21857 -13.00586,-4.9192 -13.00586,-9.68945 0,-6.2511 3.400569,-6.61328 62.003906,-6.61328 z m 4.10937,20.87695 v 52.56445 52.56446 l 27.60352,-1.25196 c 29.4133,-1.33576 39.68027,-6.06248 53.5625,-24.65625 9.07956,-12.16106 9.72537,-43.17711 1.16992,-56.23437 -11.13688,-16.99708 -25.50548,-22.95906 -55.36719,-22.97266 z"
     id="rect843-3-4"
     inkscape:connector-curvature="0" />
  <path
     style="opacity:0.98999999;vector-effect:none;fill:#e5e5cf;fill-opacity:1;stroke:none;stroke-width:9.07086658;stroke-linecap:butt;stroke-linejoin:miter;stroke-miterlimit:4;stroke-dasharray:none;stroke-dashoffset:0;stroke-opacity:1"
     d="m -694.6977,174.02559 c -22.14521,0 -39.97265,17.82744 -39.97265,39.97265 v 432.05469 c 0,22.14522 17.82744,39.97266 39.97265,39.97266 h 432.05469 c 22.14522,0 39.97266,-17.82744 39.97266,-39.97266 V 213.99824 c 0,-22.14521 -17.82744,-39.97265 -39.97266,-39.97265 z m 213.71876,27.9121 c 29.9998,-0.25578 60.05709,4.91342 86.72265,15.33985 54.69314,21.38541 98.69816,61.49702 125.02149,113.96289 12.0281,23.97362 19.30711,48.00907 22.97851,75.87891 1.4415,10.94251 1.43035,45.20834 -0.0176,56.68555 -4.5737,36.25471 -16.55856,69.29728 -35.76171,98.59375 -27.72436,42.29649 -65.32763,73.14242 -111.125,91.15429 -14.13037,5.5574 -19.18918,5.88457 -23.55469,1.52149 l -2.96094,-2.95899 -0.55273,-41.35546 c -0.59292,-44.26381 -0.82307,-46.58153 -5.67579,-57.47852 -1.20161,-2.69828 -3.86599,-7.02081 -5.92187,-9.60742 l -3.73828,-4.70313 7.48828,-1.04883 c 23.93544,-3.3501 42.57973,-9.90914 58.66797,-20.64062 19.56505,-13.05063 31.62103,-33.30457 37.54492,-63.07617 1.94936,-9.79695 2.79195,-37.29889 1.41211,-46.11328 -2.35249,-15.02773 -9.78849,-31.69182 -19.10742,-42.82227 l -3.66992,-4.38476 2.24609,-7.74024 c 3.99029,-13.74207 2.92734,-33.01247 -2.68555,-48.66406 -1.78116,-4.96678 -2.35554,-5.68661 -5.10156,-6.39453 -8.49607,-2.19022 -32.60721,6.6479 -53.51172,19.61328 -5.2075,3.2298 -7.99472,4.42588 -9.64453,4.13867 -1.27623,-0.22217 -6.49155,-1.28487 -11.58984,-2.35938 -29.16273,-6.14628 -61.09899,-6.14629 -90.26172,0 -5.09829,1.07451 -10.33831,2.14062 -11.64453,2.36719 -1.71201,0.29696 -4.1853,-0.74882 -8.86133,-3.74609 -18.6422,-11.94935 -45.03815,-21.61154 -54.74024,-20.03711 -2.94637,0.47813 -3.15579,0.79326 -5.33789,7.94727 -3.53863,11.60132 -4.43531,17.53181 -4.36523,28.88085 0.052,8.42669 0.51941,12.04578 2.35547,18.22657 l 2.29101,7.71093 -3.51953,4.17383 c -9.23431,10.95143 -16.89757,28.11249 -19.24219,43.08985 -1.38181,8.82699 -0.53698,36.33447 1.41602,46.10351 4.68398,23.4296 13.76987,42.06825 26.43555,54.23047 9.51996,9.14153 24.87274,18.01394 39.88672,23.05078 6.52544,2.18912 23.97954,5.89016 32.20117,6.82813 l 5.22851,0.5957 -3.56054,4.50391 c -4.6254,5.85158 -7.96738,13.01198 -9.74219,20.87109 -1.38936,6.15227 -1.52254,6.34796 -5.23438,7.72266 -8.18547,3.03156 -12.46506,3.70284 -23.92187,3.7539 -11.73701,0.0523 -11.9621,0.0133 -18.07227,-3.05273 -7.91273,-3.97056 -14.75549,-10.5724 -21.01953,-20.28125 -9.07335,-14.06311 -22.85767,-23.97202 -35.05664,-25.19922 -7.0184,-0.70604 -12.25195,0.80612 -12.25195,3.53906 0,2.0819 7.34602,9.51826 13.81836,13.98828 2.20566,1.52331 6.19158,5.63731 8.85742,9.14258 4.34773,5.71675 6.53861,9.74992 14.5625,26.8086 4.39881,9.3518 15.45491,17.96176 27.67773,21.55468 2.76571,0.81298 10.78813,1.93987 17.82813,2.50391 10.45773,0.83786 14.42983,0.78348 21.71289,-0.29102 l 8.91602,-1.31445 0.22461,16.04102 c 0.45293,32.24945 0.25149,33.9775 -4.29883,36.95898 -2.4062,1.5766 -7.29997,2.39078 -10.55469,1.75586 -4.44209,-0.86654 -23.45319,-8.77817 -34.1582,-14.21484 -56.15421,-28.51864 -100.51296,-82.62471 -117.86719,-143.77149 -6.01573,-21.19612 -8.32213,-39.01783 -8.34375,-64.45898 -0.0177,-20.88009 0.86416,-30.18662 4.57812,-48.3125 17.29257,-84.39591 82.78981,-154.15102 166.20899,-177.01368 19.36692,-5.30788 39.86639,-8.02225 60.39258,-8.19727 z"
     id="rect843"
     inkscape:connector-curvature="0" />
  <path
     style="opacity:0.98999999;vector-effect:none;fill:#e5e5cf;fill-opacity:1;stroke:none;stroke-width:9.07086658;stroke-linecap:butt;stroke-linejoin:miter;stroke-miterlimit:4;stroke-dasharray:none;stroke-dashoffset:0;stroke-opacity:1"
     d="m 581.36511,-4.2077134 c -22.14521,0 -39.97265,17.8274414 -39.97265,39.9726564 V 467.81963 c 0,22.14522 17.82744,39.97266 39.97265,39.97266 h 432.05469 c 22.1452,0 39.9727,-17.82744 39.9727,-39.97266 V 35.764943 c 0,-22.145215 -17.8275,-39.9726564 -39.9727,-39.9726564 z m 75.33985,55.6679694 c 13.62675,-0.07776 27.37884,5.080061 38.41211,15.488281 14.29711,13.48717 20.1225,33.112723 15.56641,52.441413 -2.24263,9.51405 -7.01687,17.72514 -14.95899,25.72656 -8.08489,8.14527 -16.25687,12.65269 -27.08203,14.93555 -13.01588,2.74485 -22.77517,1.46972 -35.42969,-4.63086 -18.92756,-9.12473 -30.50977,-27.7138 -30.50977,-48.96289 0,-15.219281 5.40049,-28.134859 16.3418,-39.076179 10.53127,-10.531275 24.03341,-15.844115 37.66016,-15.921875 z M 899.33973,179.77862 c 11.10642,0.0268 23.38973,0.81921 29.33203,2.1582 16.11325,3.63086 30.75499,11.38372 40.83203,21.62305 16.29596,16.55843 25.28567,39.1289 29.36523,73.73047 1.61468,13.69493 2.52898,159.83695 1.03125,164.83593 -0.58918,1.96652 -2.46304,4.90874 -4.16406,6.53907 l -3.09375,2.96484 -34.20117,0.28906 c -36.25505,0.30646 -37.62878,0.16063 -41.96875,-4.45703 l -2.35352,-2.5039 -0.58984,-73.81446 c -0.65561,-81.90438 -0.66227,-81.98946 -7.40234,-95.85742 -6.12914,-12.61095 -14.83463,-19.30983 -28.09571,-21.61914 -25.41392,-4.42565 -43.69334,8.844 -52.42969,38.06055 l -2.57421,8.60742 -0.54297,71.63867 c -0.59118,77.87128 -0.3177,74.51332 -6.36914,78.20313 -2.98786,1.82183 -5.27973,1.94521 -35.77149,1.94921 -36.45924,0.004 -37.54109,-0.18013 -41.23633,-7.07031 -1.74502,-3.25374 -1.83212,-9.23953 -1.82812,-127.67187 0.004,-121.47263 0.047,-124.32904 1.95898,-127.46485 3.78322,-6.20473 4.47687,-6.31054 41.16797,-6.31054 32.02365,0 33.31411,0.0735 36.13477,2.08203 4.92671,3.50813 5.90039,6.64396 5.90039,18.99804 v 11.16211 l 3.84179,-4.84961 c 5.41226,-6.83119 14.87179,-15.26961 21.64063,-19.30468 7.67553,-4.57558 22.98596,-9.52429 34.32031,-11.09375 4.19304,-0.58061 10.43185,-0.84032 17.09571,-0.82422 z m -253.04883,3.95312 c 3.57408,0.0158 7.64104,0.0479 12.27734,0.0879 l 33.46094,0.28907 2.71289,2.50586 c 5.73723,5.29624 5.45998,-1.35303 5.45898,131.47265 -0.001,114.66481 -0.11243,122.74171 -1.75195,125.95703 -0.96352,1.88958 -3.02518,4.36845 -4.58008,5.50977 -2.70525,1.98567 -4.23766,2.08583 -35.56836,2.32422 -31.73354,0.24145 -32.85391,0.18509 -36.34961,-1.86328 -7.48527,-4.3861 -6.91416,6.54863 -6.91015,-132.30078 0.004,-121.80068 0.0488,-124.659 1.96093,-127.79493 3.3762,-5.53715 4.27048,-6.29809 29.28907,-6.1875 z"
     id="rect843-3-9"
     inkscape:connector-curvature="0" />
  <rect
     style="opacity:1;vector-effect:none;fill:#e5e5cf;fill-opacity:0.99215686;stroke:none;stroke-width:26.32440948;stroke-linecap:square;stroke-linejoin:miter;stroke-miterlimit:4;stroke-dasharray:none;stroke-dashoffset:0;stroke-opacity:1"
     id="rect829"
     width="512"
     height="512"
     x="-449.42307"
     y="-915.42157"
     ry="44.195587"
     rx="35.765564" />
  <path
     style="opacity:1;vector-effect:none;fill:#e5e5cf;fill-opacity:0.99215686;stroke:none;stroke-width:26.32440948;stroke-linecap:square;stroke-linejoin:miter;stroke-miterlimit:4;stroke-dasharray:none;stroke-dashoffset:0;stroke-opacity:1"
     d="m 1483.3928,92.579661 c -37.483,0.03088 -74.9688,0.11254 -112.4472,0.03125 -73.4747,0.009 -146.9495,-0.01833 -220.4239,0.01367 -19.4545,0.54865 -33.4897,18.842909 -36.0644,36.949219 -1.8869,17.98309 -0.1517,36.1777 -0.7461,54.23242 0.122,127.71818 -0.2439,255.45015 0.1797,383.16016 1.1275,18.8123 13.8335,38.85205 33.6992,41.4043 73.9425,0.56575 147.9279,0.0762 221.8867,0.24023 75.1476,-0.0954 150.3069,0.18976 225.4473,-0.14063 19.8311,-1.93326 32.9607,-21.56304 34.4922,-40.23046 0.7231,-43.92007 0.073,-87.88714 0.2949,-131.82422 -0.1317,-100.77222 0.2615,-201.55903 -0.1934,-302.32227 -1.1837,-18.7597 -13.882,-38.702529 -33.6914,-41.244139 -37.4703,-0.28053 -74.9506,-0.30041 -112.4336,-0.26953 z m -119.582,71.828119 c 29.9375,0.0314 59.8913,-0.0387 89.8164,0.91993 26.1039,0.6223 54.7614,4.12503 74.7754,22.58984 17.2405,14.82348 25.2433,37.40623 27.3379,59.50781 3.5046,44.77993 1.7,89.76456 2.1386,134.63477 -0.4517,28.53329 0.7552,57.40606 -4.2402,85.61914 -4.1762,22.4682 -17.6283,43.34863 -37.6152,54.8125 -21.6419,12.45237 -47.2662,13.06505 -71.5274,13.85742 -52.0663,0.4398 -104.1702,1.16667 -156.2226,-0.44726 -26.1298,-0.6479 -54.9598,-4.63527 -74.4531,-23.79297 -19.2186,-17.23417 -25.8964,-43.85406 -26.8204,-68.75586 -2.3455,-51.43043 -1.4232,-102.95628 -1.0937,-154.42383 0.8285,-29.70024 -0.309,-62.27233 17.4648,-87.80273 12.7882,-18.89011 34.3522,-30.03809 56.5664,-33.26172 34.4059,-4.53613 69.262,-2.83098 103.8731,-3.45704 z m 129.0058,41.50001 c -0.4762,-0.007 -0.9559,5.8e-4 -1.4375,0.0254 -6.3719,-0.12603 -12.6596,2.67193 -17.1621,7.12109 -11.8635,10.88692 -8.7126,32.46045 5.6797,39.5957 13.7577,8.01129 33.3027,-0.97597 36.1133,-16.66015 3.5893,-14.46055 -8.4287,-29.85568 -23.1934,-30.08203 z m -121.2441,31.50195 c -32.6371,-0.2445 -64.5076,14.66343 -85.7227,39.42773 -25.7829,29.51622 -34.0267,72.10153 -21.7558,109.00391 13.6843,44.1816 57.0033,76.88696 103.0273,77.93164 35.2027,1.75672 70.1733,-14.01361 92.3575,-41.43945 28.0644,-33.41282 33.5148,-83.35984 13.6464,-122.32227 -18.6368,-37.95117 -59.2845,-63.10036 -101.5527,-62.60156 z m -3.1172,36.49414 c 3.2735,-0.0426 6.5498,0.0147 9.8184,0.19726 34.7525,2.15721 65.3707,31.12072 69.5976,65.67969 5.1509,32.26233 -13.0268,66.39477 -42.6816,80.09766 -28.0535,14.11605 -64.3855,8.32822 -86.6914,-13.7793 -19.9939,-18.63908 -28.1318,-48.34687 -21.1953,-74.6875 7.7774,-32.00659 38.1791,-56.75767 71.1523,-57.50781 z"
     id="rect829-3"
     inkscape:connector-curvature="0" />
</svg>
