<?xml version="1.0" encoding="UTF-8" standalone="no"?>
<!-- Created with Inkscape (http://www.inkscape.org/) -->

<svg
   width="400"
   height="400"
   viewBox="0 0 105.83333 105.83334"
   version="1.1"
   id="svg5"
   inkscape:version="1.1 (c68e22c387, 2021-05-23)"
   sodipodi:docname="github.svg"
   xmlns:inkscape="http://www.inkscape.org/namespaces/inkscape"
   xmlns:sodipodi="http://sodipodi.sourceforge.net/DTD/sodipodi-0.dtd"
   xmlns="http://www.w3.org/2000/svg"
   xmlns:svg="http://www.w3.org/2000/svg">
  <sodipodi:namedview
     id="namedview7"
     pagecolor="#505050"
     bordercolor="#eeeeee"
     borderopacity="1"
     inkscape:pageshadow="0"
     inkscape:pageopacity="0"
     inkscape:pagecheckerboard="0"
     inkscape:document-units="mm"
     showgrid="false"
     units="px"
     inkscape:zoom="0.99406002"
     inkscape:cx="185.60247"
     inkscape:cy="170.51284"
     inkscape:window-width="1920"
     inkscape:window-height="1027"
     inkscape:window-x="1072"
     inkscape:window-y="146"
     inkscape:window-maximized="1"
     inkscape:current-layer="layer1" />
  <defs
     id="defs2" />
  <g
     inkscape:label="Layer 1"
     inkscape:groupmode="layer"
     id="layer1">
    <path
       style="fill:#004128;stroke-width:0.999998;fill-opacity:1"
       d="M 36.386667,105.65094 C 35.38245,105.4504 31.084644,103.61967 28.664582,102.36157 15.969902,95.762031 5.9419484,83.240863 2.018708,69.09082 0.65874347,64.185802 0.13723936,60.06208 0.13235072,54.174715 0.12837069,49.342828 0.32772816,47.188956 1.1673369,42.994421 5.0766361,23.464265 19.883606,7.3220565 38.74203,2.0313814 49.519252,-0.99213517 61.847291,-0.37948419 72.000112,3.6841648 84.364497,8.6329873 94.312495,17.915497 100.26336,30.056687 c 2.71918,5.547765 4.3646,11.10978 5.1946,17.559173 0.32588,2.532218 0.32366,10.461754 -0.004,13.117709 -1.03397,8.389749 -3.74344,16.036143 -8.084664,22.815674 -6.267598,9.787884 -14.768748,16.926017 -25.12208,21.094157 -3.194428,1.28605 -4.338034,1.36164 -5.324932,0.35197 l -0.669109,-0.68453 -0.125233,-9.570123 C 65.994157,84.497572 65.942434,83.961322 64.845395,81.439635 64.573751,80.815223 63.971224,79.814606 63.506452,79.216031 l -0.845033,-1.088309 1.69266,-0.242513 c 5.411043,-0.775252 9.626272,-2.293352 13.263317,-4.776736 4.423038,-3.020057 7.148398,-7.706969 8.487599,-14.596451 0.440695,-2.267123 0.630955,-8.631423 0.319016,-10.671172 -0.531821,-3.477584 -2.212607,-7.333599 -4.319316,-9.90931 l -0.82998,-1.014739 0.508097,-1.79116 c 0.902076,-3.180069 0.661594,-7.639509 -0.6073,-11.261462 -0.40267,-1.149368 -0.532419,-1.315845 -1.153202,-1.479665 -1.920691,-0.506843 -7.371551,1.538085 -12.097401,4.538421 -1.177251,0.747411 -1.807386,1.024205 -2.180359,0.957743 -0.288518,-0.05141 -1.467582,-0.296922 -2.620141,-0.545574 -6.592763,-1.42232 -13.812324,-1.42232 -20.405086,0 -1.152567,0.248652 -2.337177,0.494993 -2.632469,0.547425 -0.387035,0.06872 -0.946236,-0.173249 -2.003341,-0.866851 -4.214408,-2.765212 -10.181468,-5.00097 -12.374803,-4.636629 -0.666081,0.110646 -0.713805,0.18334 -1.207107,1.838859 -0.79997,2.684677 -1.002607,4.057156 -0.986763,6.683452 0.01176,1.95003 0.117507,2.787462 0.532582,4.217766 l 0.517906,1.784646 -0.795601,0.965842 c -2.087583,2.534282 -3.819963,6.505308 -4.350006,9.971236 -0.312383,2.042665 -0.121373,8.408308 0.320139,10.668973 1.0589,5.421872 3.112839,9.734991 5.976147,12.549457 2.152161,2.115453 5.62287,4.168612 9.017055,5.334193 1.475195,0.50659 5.420881,1.363048 7.27953,1.580099 l 1.182149,0.13806 -0.804927,1.04237 c -1.045651,1.354113 -1.801238,3.01101 -2.202467,4.829694 -0.314095,1.423702 -0.343921,1.468763 -1.183048,1.786883 -1.850477,0.701539 -2.818017,0.856968 -5.408036,0.86878 -2.653366,0.01207 -2.704484,0.0032 -4.085796,-0.706242 -1.788818,-0.918831 -3.335756,-2.446783 -4.751858,-4.693524 -2.051195,-3.254354 -5.167316,-5.547123 -7.925113,-5.831105 -1.586637,-0.163395 -2.769528,0.186296 -2.769528,0.818729 0,0.481776 1.660682,2.202608 3.123875,3.23702 0.49863,0.352513 1.399687,1.304597 2.00235,2.115762 0.982883,1.322921 1.478186,2.256289 3.292132,6.20386 0.994431,2.164113 3.493509,4.156363 6.2567,4.987807 0.62524,0.188126 2.438953,0.448847 4.030474,0.579375 2.36416,0.193893 3.262442,0.181627 4.90891,-0.06701 l 2.015239,-0.304342 0.05093,3.712193 c 0.102391,7.462888 0.05695,7.862788 -0.971728,8.552738 -0.543961,0.36483 -1.650475,0.55325 -2.386258,0.40633 z"
       id="path836" />
  </g>
</svg>
