<?xml version="1.0" encoding="UTF-8" standalone="no"?>
<!-- Created with Inkscape (http://www.inkscape.org/) -->

<svg
   width="400"
   height="400"
   viewBox="0 0 105.83333 105.83334"
   version="1.1"
   id="svg5"
   inkscape:version="1.1 (c68e22c387, 2021-05-23)"
   sodipodi:docname="home.svg"
   xmlns:inkscape="http://www.inkscape.org/namespaces/inkscape"
   xmlns:sodipodi="http://sodipodi.sourceforge.net/DTD/sodipodi-0.dtd"
   xmlns="http://www.w3.org/2000/svg"
   xmlns:svg="http://www.w3.org/2000/svg">
  <sodipodi:namedview
     id="namedview7"
     pagecolor="#505050"
     bordercolor="#eeeeee"
     borderopacity="1"
     inkscape:pageshadow="0"
     inkscape:pageopacity="0"
     inkscape:pagecheckerboard="0"
     inkscape:document-units="mm"
     showgrid="false"
     units="px"
     inkscape:zoom="0.99406002"
     inkscape:cx="161.45906"
     inkscape:cy="154.41724"
     inkscape:window-width="1920"
     inkscape:window-height="1027"
     inkscape:window-x="1072"
     inkscape:window-y="146"
     inkscape:window-maximized="1"
     inkscape:current-layer="layer1" />
  <defs
     id="defs2" />
  <g
     inkscape:label="Layer 1"
     inkscape:groupmode="layer"
     id="layer1">
    <path
       style="fill:#586868;fill-opacity:1;stroke-width:1"
       d="m 27.263304,92.880667 c -2.241971,-0.287919 -4.044012,-2.110214 -4.321059,-4.369647 -0.02744,-0.223788 -0.0406,-5.233573 -0.0406,-15.460156 V 57.92178 l -2.861934,-0.01469 c -2.567227,-0.01317 -2.892029,-0.02179 -3.154216,-0.08372 -0.527726,-0.124655 -0.912716,-0.26252 -1.329153,-0.475964 -1.352366,-0.69315 -2.230106,-1.876573 -2.565532,-3.459004 -0.08613,-0.406344 -0.09619,-1.437141 -0.01824,-1.870501 0.171735,-0.954862 0.612785,-1.792151 1.492116,-2.83263 0.417224,-0.493685 33.324833,-33.417286 34.339581,-34.356267 0.772862,-0.715159 1.282443,-1.089957 1.896228,-1.394686 0.908713,-0.451151 1.833157,-0.609412 2.833655,-0.485112 1.22636,0.15236 2.16741,0.659472 3.456738,1.862756 0.300844,0.280769 2.876584,2.830259 5.723865,5.665536 l 5.176875,5.15505 0.02373,-1.70305 c 0.01914,-1.374232 0.03604,-1.755854 0.0875,-1.976544 0.239071,-1.025171 0.626738,-1.76869 1.284491,-2.463561 0.709501,-0.749537 1.574911,-1.235355 2.64811,-1.486578 0.26231,-0.0614 0.600241,-0.07017 3.223338,-0.08367 1.989694,-0.01028 3.051333,-0.0012 3.307343,0.0283 1.147543,0.132014 2.1354,0.612793 2.966248,1.443641 0.819326,0.819328 1.302928,1.803069 1.44136,2.932014 0.02701,0.220245 0.04059,3.345741 0.04059,9.336434 v 9.005356 l 4.016197,4.025766 c 2.208895,2.214172 4.166646,4.201585 4.35055,4.416474 1.048767,1.225521 1.462985,2.061921 1.598895,3.228597 0.178264,1.530197 -0.359683,3.095908 -1.426678,4.152396 -0.670886,0.664273 -1.449501,1.081971 -2.46347,1.321553 -0.338505,0.07998 -0.458455,0.08362 -3.213123,0.09758 l -2.8615,0.0145 -0.01112,15.34295 c -0.01039,14.341959 -0.01549,15.360793 -0.07817,15.616446 -0.134287,0.547786 -0.233608,0.828996 -0.44159,1.250263 -0.744047,1.507105 -2.212612,2.548027 -3.883961,2.752965 -0.21866,0.02683 -2.921454,0.04062 -7.960147,0.04062 h -7.629082 l -0.01143,-12.864046 -0.01144,-12.864047 -0.08325,-0.332101 c -0.440293,-1.756477 -1.623543,-3.08827 -3.254997,-3.66363 -0.794152,-0.28007 -0.362522,-0.262981 -6.642029,-0.262981 -5.36658,0 -5.662144,0.0035 -5.977825,0.07293 -1.012056,0.22225 -1.820277,0.662847 -2.544626,1.387199 -0.706147,0.706145 -1.117154,1.443732 -1.374406,2.466483 l -0.08354,0.332101 -0.01132,12.864046 -0.01132,12.864048 -7.686711,-0.0054 c -4.22769,-0.003 -7.807413,-0.02046 -7.954939,-0.03941 z"
       id="path1016" />
  </g>
</svg>
