<?xml version="1.0" encoding="UTF-8" standalone="no"?>
<!-- Created with Inkscape (http://www.inkscape.org/) -->

<svg
   width="400"
   height="400"
   viewBox="0 0 105.83333 105.83334"
   version="1.1"
   id="svg5"
   inkscape:version="1.1 (c68e22c387, 2021-05-23)"
   sodipodi:docname="linkedin.svg"
   xmlns:inkscape="http://www.inkscape.org/namespaces/inkscape"
   xmlns:sodipodi="http://sodipodi.sourceforge.net/DTD/sodipodi-0.dtd"
   xmlns="http://www.w3.org/2000/svg"
   xmlns:svg="http://www.w3.org/2000/svg">
  <sodipodi:namedview
     id="namedview7"
     pagecolor="#505050"
     bordercolor="#eeeeee"
     borderopacity="1"
     inkscape:pageshadow="0"
     inkscape:pageopacity="0"
     inkscape:pagecheckerboard="0"
     inkscape:document-units="mm"
     showgrid="false"
     units="px"
     inkscape:zoom="0.99406002"
     inkscape:cx="161.45906"
     inkscape:cy="154.41724"
     inkscape:window-width="1920"
     inkscape:window-height="1027"
     inkscape:window-x="1072"
     inkscape:window-y="146"
     inkscape:window-maximized="1"
     inkscape:current-layer="layer1" />
  <defs
     id="defs2" />
  <g
     inkscape:label="Layer 1"
     inkscape:groupmode="layer"
     id="layer1">
    <path
       style="fill:#004128;stroke-width:1;fill-opacity:1"
       d="M 48.106844,105.51258 C 37.392326,104.40778 27.565378,100.35412 19.492298,93.708971 9.3955995,85.39812 2.6805145,73.564719 0.77301851,60.721643 -1.3178915,46.643655 2.2781145,32.615376 10.957034,20.993057 12.846234,18.463146 18.469838,12.839542 20.999749,10.950342 35.410716,0.1890109 53.682008,-2.6934481 70.448025,3.1494369 81.463128,6.9881539 91.400319,14.95793 97.731481,25.031179 c 3.773579,6.003975 6.475339,13.482665 7.514569,20.800895 0.5262,3.705537 0.5262,10.521501 0,14.227039 -1.28248,9.031179 -4.76089,17.423945 -10.289912,24.827625 -1.900122,2.544373 -7.518334,8.162583 -10.062708,10.062703 -7.26113,5.422559 -15.425128,8.862519 -24.165095,10.182119 -3.156152,0.47653 -9.761403,0.67594 -12.621491,0.38102 z M 37.488113,61.811719 v -17.93844 h -5.97948 -5.97948 v 17.93844 17.93844 h 5.97948 5.97948 z m 18.6002,6.752689 0.0599,-11.185752 0.566637,-1.074879 c 0.787153,-1.493192 1.591936,-2.350392 2.872833,-3.059952 0.998219,-0.552968 1.272564,-0.607515 3.055484,-0.607515 1.774916,0 2.051168,0.0543 2.942809,0.578418 1.0785,0.633955 1.782879,1.560359 2.479227,3.260691 0.446015,1.089077 0.455477,1.312698 0.515864,12.192083 l 0.06151,11.082657 h 5.981334 5.981331 L 80.532952,67.430368 C 80.462942,55.498664 80.446392,55.058616 80.0077,53.461066 78.828081,49.165341 76.51261,46.074775 73.280258,44.481642 69.537202,42.636797 64.56157,42.57201 60.993651,44.32166 c -1.296502,0.635783 -3.783608,2.850428 -4.590683,4.087776 -0.320842,0.491891 -0.336719,0.39992 -0.347038,-2.010342 l -0.01082,-2.525815 h -5.97948 -5.97948 v 17.93844 17.93844 h 5.971127 5.971125 z M 33.936378,38.610174 c 2.142326,-0.636203 3.742736,-2.424147 4.19638,-4.688111 0.446578,-2.228702 -0.593832,-4.890738 -2.39609,-6.130725 -1.917061,-1.318973 -5.065535,-1.591041 -7.252274,-0.626689 -5.115895,2.256107 -4.730388,9.795087 0.585708,11.454102 1.211633,0.37812 3.578175,0.373949 4.866276,-0.0086 z"
       id="path1524" />
  </g>
</svg>
