<?xml version="1.0" encoding="UTF-8" standalone="no"?>
<!-- Created with Inkscape (http://www.inkscape.org/) -->

<svg
   width="400"
   height="400"
   viewBox="0 0 105.83333 105.83334"
   version="1.1"
   id="svg5"
   inkscape:version="1.1 (c68e22c387, 2021-05-23)"
   sodipodi:docname="mail.svg"
   xmlns:inkscape="http://www.inkscape.org/namespaces/inkscape"
   xmlns:sodipodi="http://sodipodi.sourceforge.net/DTD/sodipodi-0.dtd"
   xmlns="http://www.w3.org/2000/svg"
   xmlns:svg="http://www.w3.org/2000/svg">
  <sodipodi:namedview
     id="namedview7"
     pagecolor="#505050"
     bordercolor="#eeeeee"
     borderopacity="1"
     inkscape:pageshadow="0"
     inkscape:pageopacity="0"
     inkscape:pagecheckerboard="0"
     inkscape:document-units="mm"
     showgrid="false"
     units="px"
     inkscape:zoom="0.99406002"
     inkscape:cx="161.45906"
     inkscape:cy="154.41724"
     inkscape:window-width="1920"
     inkscape:window-height="1027"
     inkscape:window-x="1072"
     inkscape:window-y="146"
     inkscape:window-maximized="1"
     inkscape:current-layer="layer1" />
  <defs
     id="defs2" />
  <g
     inkscape:label="Layer 1"
     inkscape:groupmode="layer"
     id="layer1">
    <path
       style="fill:#586868;fill-opacity:1;stroke-width:1"
       d="M 17.910531,89.325128 16.991167,89.04452 30.009825,76.204343 43.028484,63.364169 l 2.85021,2.862251 c 3.359454,3.373648 4.850365,4.280711 7.03607,4.280711 2.185708,0 3.676619,-0.907063 7.036072,-4.280711 l 2.850211,-2.862251 13.018659,12.840174 13.018663,12.840177 -0.91937,0.280608 c -1.321354,0.403303 -68.687113,0.403303 -70.008468,0 z m -4.449885,-4.406673 c -0.275171,-0.990844 -0.321822,-49.280409 -0.04853,-50.236146 0.13777,-0.481803 1.654821,0.937699 13.270913,12.417569 L 39.798388,60.061435 26.923048,72.93843 c -7.081437,7.082348 -12.95138,12.876996 -13.04432,12.876996 -0.09294,0 -0.281078,-0.403637 -0.418082,-0.896971 z M 78.906781,72.93873 66.031742,60.062035 79.146803,47.115572 C 89.405135,36.989116 92.297286,34.258197 92.424451,34.578107 c 0.08941,0.224949 0.169549,11.441733 0.17806,24.926188 0.01474,23.358761 -0.05842,26.311131 -0.651706,26.311131 -0.09294,0 -5.962754,-5.794513 -13.044024,-12.876696 z M 34.245851,48.326499 16.502129,30.690518 17.307223,30.327293 c 0.708143,-0.319482 4.996046,-0.363223 35.607541,-0.363223 30.636167,0 34.899002,0.04356 35.608988,0.363813 l 0.806534,0.363812 -17.752044,17.635393 C 54.254917,65.536573 53.804015,65.962481 52.90788,65.962481 c -0.896211,0 -1.345269,-0.424367 -18.662029,-17.635982 z"
       id="path1327" />
  </g>
</svg>
