<?xml version="1.0" encoding="UTF-8" standalone="no"?>
<!-- Created with Inkscape (http://www.inkscape.org/) -->

<svg
   width="400"
   height="400"
   viewBox="0 0 105.83333 105.83334"
   version="1.1"
   id="svg5"
   inkscape:version="1.1 (c68e22c387, 2021-05-23)"
   sodipodi:docname="phone.svg"
   xmlns:inkscape="http://www.inkscape.org/namespaces/inkscape"
   xmlns:sodipodi="http://sodipodi.sourceforge.net/DTD/sodipodi-0.dtd"
   xmlns="http://www.w3.org/2000/svg"
   xmlns:svg="http://www.w3.org/2000/svg">
  <sodipodi:namedview
     id="namedview7"
     pagecolor="#505050"
     bordercolor="#eeeeee"
     borderopacity="1"
     inkscape:pageshadow="0"
     inkscape:pageopacity="0"
     inkscape:pagecheckerboard="0"
     inkscape:document-units="mm"
     showgrid="false"
     units="px"
     inkscape:zoom="0.99406002"
     inkscape:cx="161.45906"
     inkscape:cy="187.61443"
     inkscape:window-width="1920"
     inkscape:window-height="1027"
     inkscape:window-x="1072"
     inkscape:window-y="146"
     inkscape:window-maximized="1"
     inkscape:current-layer="layer1" />
  <defs
     id="defs2" />
  <g
     inkscape:label="Layer 1"
     inkscape:groupmode="layer"
     id="layer1">
    <path
       style="fill:#586868;fill-opacity:1;stroke-width:1"
       d="M 64.51712,90.457963 C 57.670672,89.182097 51.935664,87.213938 45.275006,83.854402 31.942626,77.129728 23.016243,66.396904 17.807338,50.828061 15.693627,44.510409 14.90842,40.272794 14.893657,35.103474 c -0.01187,-4.156699 0.08036,-4.702307 1.170074,-6.921616 1.366551,-2.78312 5.787411,-7.66428 7.811401,-8.624728 1.883199,-0.893635 4.267393,-0.825538 7.0089,0.200192 3.989417,1.492632 4.084612,1.654688 6.123,10.423538 1.117275,4.80635 1.722467,8.265894 1.578743,9.024792 -0.156495,0.826335 -1.359647,2.348231 -3.662126,4.632311 -1.885984,1.870912 -3.42906,3.582497 -3.42906,3.803522 0,0.923039 2.572008,5.966166 4.746441,9.306692 2.980812,4.579352 8.005301,9.603843 12.584652,12.584654 3.283778,2.137493 8.379889,4.746441 9.271312,4.746441 0.201565,0 1.91315,-1.545102 3.803523,-3.433556 2.222228,-2.21998 3.872009,-3.525678 4.667692,-3.694188 0.811321,-0.171819 3.88642,0.369004 9.024791,1.587207 8.763155,2.077564 8.938051,2.180776 10.42354,6.151093 1.025729,2.741509 1.093825,5.125704 0.20019,7.008896 -0.958662,2.020229 -5.841082,6.445255 -8.601758,7.795931 -2.005255,0.981076 -2.979379,1.184038 -6.101177,1.271181 -2.043213,0.05704 -5.191717,-0.171511 -6.996675,-0.507873 z m 0.433477,-36.780858 c -0.35122,-0.501438 -0.642638,-1.562879 -0.647594,-2.358751 -0.01172,-1.88293 -1.339669,-4.781406 -2.988281,-6.522444 -1.624999,-1.716106 -4.938439,-3.324734 -6.859214,-3.330054 -2.063945,-0.0058 -3.270465,-0.975998 -3.270465,-2.630104 0,-2.193134 1.120902,-2.877958 4.18617,-2.557574 3.353932,0.350555 7.184988,2.175618 9.566922,4.557549 3.500335,3.500337 5.714957,10.307229 4.136989,12.715511 -0.907099,1.384411 -3.194124,1.454206 -4.124527,0.125867 z m 10.665663,0 c -0.35122,-0.501438 -0.638586,-1.662543 -0.638586,-2.580228 0,-4.504488 -2.60362,-10.263524 -6.320394,-13.980298 -3.716774,-3.716773 -9.475809,-6.320392 -13.980295,-6.320392 -2.293246,0 -3.491942,-0.915315 -3.491942,-2.666416 0,-2.631702 2.347881,-3.233801 7.999246,-2.051355 1.579339,0.330449 4.440607,1.370737 6.358376,2.311752 6.924295,3.397629 12.576551,10.666001 14.15278,18.199403 1.182445,5.651365 0.580347,7.999247 -2.051356,7.999247 -0.970571,0 -1.581689,-0.274759 -2.027829,-0.911713 z m 10.665662,0 c -0.363527,-0.519011 -0.638586,-1.763304 -0.638586,-2.888817 0,-4.721144 -2.22788,-11.671648 -5.19019,-16.192265 -1.978969,-3.019993 -6.246177,-7.2904 -9.254665,-9.261607 -4.609527,-3.020227 -11.412813,-5.203892 -16.212909,-5.203892 -2.605544,0 -3.800529,-0.842729 -3.800529,-2.68022 0,-2.235951 1.295051,-2.832126 5.453606,-2.510562 12.892941,0.996959 24.497017,8.867033 30.383109,20.606323 3.067841,6.118517 4.876986,15.727647 3.388744,17.998987 -0.91108,1.390482 -3.195954,1.463562 -4.12858,0.132053 z"
       id="path1130" />
  </g>
</svg>
