<?xml version="1.0" encoding="UTF-8" standalone="no"?>
<!-- Created with Inkscape (http://www.inkscape.org/) -->

<svg
   width="400"
   height="400"
   viewBox="0 0 105.83333 105.83334"
   version="1.1"
   id="svg5"
   inkscape:version="1.1 (c68e22c387, 2021-05-23)"
   sodipodi:docname="phone.svg"
   xmlns:inkscape="http://www.inkscape.org/namespaces/inkscape"
   xmlns:sodipodi="http://sodipodi.sourceforge.net/DTD/sodipodi-0.dtd"
   xmlns="http://www.w3.org/2000/svg"
   xmlns:svg="http://www.w3.org/2000/svg">
  <sodipodi:namedview
     id="namedview7"
     pagecolor="#505050"
     bordercolor="#eeeeee"
     borderopacity="1"
     inkscape:pageshadow="0"
     inkscape:pageopacity="0"
     inkscape:pagecheckerboard="0"
     inkscape:document-units="mm"
     showgrid="false"
     units="px"
     inkscape:zoom="0.99406002"
     inkscape:cx="161.45906"
     inkscape:cy="153.91425"
     inkscape:window-width="1280"
     inkscape:window-height="746"
     inkscape:window-x="1072"
     inkscape:window-y="1226"
     inkscape:window-maximized="1"
     inkscape:current-layer="layer1" />
  <defs
     id="defs2" />
  <g
     inkscape:label="Layer 1"
     inkscape:groupmode="layer"
     id="layer1">
    <path
       style="fill:#000000;stroke-width:1"
       d="M 67.843439,101.22257 C 59.033837,99.580861 51.65437,97.048351 43.083833,92.725501 25.928521,84.072591 14.442583,70.262233 7.7400748,50.229173 5.0202768,42.099995 4.0099188,36.647285 3.9909228,29.995711 3.9756428,24.647119 4.0943268,23.945063 5.4965048,21.089388 7.2549008,17.508236 12.9434,11.227449 15.54775,9.9916026 c 2.423188,-1.149877 5.491027,-1.062253 9.018635,0.2575954 5.133344,1.92063 5.255835,2.129153 7.878712,13.412387 1.437642,6.184525 2.216367,10.63606 2.031432,11.612564 -0.201368,1.063279 -1.749513,3.021564 -4.712206,5.960582 -2.426771,2.407379 -4.41231,4.609744 -4.41231,4.894146 0,1.187712 3.309507,7.676907 6.107438,11.975297 3.835531,5.892437 10.300744,12.357652 16.19318,16.193182 4.22537,2.750399 10.782742,6.107438 11.929772,6.107438 0.259362,0 2.461727,-1.988145 4.894147,-4.418095 2.85943,-2.856538 4.98227,-4.536633 6.006108,-4.753461 1.043959,-0.221087 5.000813,0.474812 11.612563,2.042323 11.275905,2.673286 11.500951,2.806092 13.41239,7.91486 1.319847,3.52761 1.407469,6.59545 0.257593,9.01863 -1.23355,2.59951 -7.515957,8.29337 -11.06823,10.031339 -2.580243,1.26239 -3.833687,1.52355 -7.850631,1.63568 -2.629085,0.0734 -6.680392,-0.22069 -9.002904,-0.6535 z m 0.557772,-47.327417 c -0.451929,-0.64522 -0.826909,-2.011019 -0.833286,-3.0351 -0.01508,-2.422842 -1.723806,-6.152428 -3.845141,-8.392692 -2.090953,-2.208183 -6.35449,-4.27807 -8.826028,-4.284915 -2.655762,-0.0074 -4.20824,-1.255856 -4.20824,-3.384262 0,-2.821994 1.44231,-3.703184 5.386514,-3.290933 4.31564,0.451073 9.245215,2.799455 12.310145,5.864382 4.504023,4.504025 7.353667,13.262728 5.323231,16.361562 -1.1672,1.781378 -4.110008,1.871185 -5.307195,0.161958 z m 13.723939,0 c -0.451929,-0.64522 -0.821694,-2.139261 -0.821694,-3.320083 0,-5.796107 -3.350183,-13.206492 -8.132706,-17.989015 -4.782524,-4.782522 -12.192907,-8.132704 -17.989011,-8.132704 -2.950812,0 -4.493223,-1.177772 -4.493223,-3.430985 0,-3.386317 3.021114,-4.161063 10.292953,-2.639561 2.032199,0.425202 5.713909,1.763782 8.181579,2.974624 8.909771,4.371867 16.182757,13.724375 18.210954,23.417908 1.5215,7.271839 0.746757,10.292954 -2.639562,10.292954 -1.248873,0 -2.035223,-0.353544 -2.60929,-1.173138 z m 13.723939,0 c -0.467765,-0.667833 -0.821695,-2.268915 -0.821695,-3.717158 0,-6.074886 -2.866703,-15.018381 -6.678427,-20.835241 C 85.802548,25.456807 80.311759,19.961901 76.440615,17.42547 70.509351,13.539222 61.755288,10.729412 55.57881,10.729412 c -3.352659,0 -4.890294,-1.0843744 -4.890294,-3.4487474 0,-2.877089 1.666394,-3.644211 7.017376,-3.230442 16.589867,1.282827 31.521301,11.4095694 39.095174,26.5149884 3.947514,7.872943 6.275414,20.237399 4.360434,23.160024 -1.172324,1.78919 -4.112364,1.883225 -5.312411,0.169918 z"
       id="path1130" />
  </g>
</svg>
