<svg xmlns="http://www.w3.org/2000/svg" xmlns:xlink="http://www.w3.org/1999/xlink" aria-hidden="true" style="position: absolute; width: 0; height: 0; overflow: hidden;">
    <defs>
        <symbol id="instagram" viewBox="0 0 135.467 135.467"><path style="stroke-linecap:square;stroke-linejoin:miter;stroke-miterlimit:4;stroke-dasharray:none;stroke-dashoffset:0;stroke-opacity:1" d="M80.168 27.97c-9.837.009-19.674.03-29.509.009-19.281.002-38.562-.005-57.843.003-5.106.144-8.789 4.946-9.464 9.699-.496 4.72-.04 9.496-.196 14.236.032 33.524-.064 67.053.047 100.575.296 4.938 3.63 10.198 8.843 10.868 19.404.149 38.82.02 58.228.063 19.72-.025 39.443.05 59.162-.036 5.204-.508 8.65-5.66 9.051-10.56.19-11.53.02-23.07.078-34.603-.035-26.452.068-52.907-.051-79.357-.31-4.924-3.643-10.159-8.841-10.826-9.833-.073-19.669-.079-29.505-.07zM48.787 46.825c7.856.008 15.717-.01 23.57.241 6.85.163 14.37 1.083 19.622 5.93 4.524 3.89 6.625 9.818 7.174 15.62.92 11.754.446 23.562.561 35.34-.118 7.49.199 15.069-1.112 22.474-1.096 5.898-4.626 11.379-9.871 14.388-5.68 3.269-12.404 3.43-18.77 3.637-13.664.116-27.337.307-40.996-.117-6.857-.17-14.423-1.217-19.538-6.245-5.044-4.524-6.796-11.512-7.039-18.048-.615-13.5-.373-27.025-.287-40.535.218-7.796-.08-16.346 4.583-23.047 3.356-4.959 9.015-7.885 14.845-8.731 9.028-1.19 18.175-.743 27.258-.907Zm33.854 10.893c-.125-.002-.251 0-.378.007-1.672-.034-3.322.7-4.503 1.869-3.113 2.857-2.287 8.52 1.49 10.393 3.61 2.103 8.74-.256 9.477-4.373.942-3.796-2.212-7.837-6.086-7.896zm-31.817 8.269c-8.565-.064-16.928 3.849-22.496 10.35-6.766 7.747-8.929 18.925-5.709 28.612 3.591 11.597 14.96 20.182 27.037 20.456 9.238.461 18.415-3.679 24.236-10.878 7.365-8.77 8.795-21.88 3.581-32.108-4.89-9.962-15.557-16.563-26.65-16.432zm-.818 9.58c.859-.012 1.719.003 2.576.051 9.12.566 17.155 8.169 18.264 17.24 1.352 8.469-3.418 17.428-11.2 21.025-7.362 3.705-16.896 2.186-22.75-3.617-5.247-4.892-7.382-12.69-5.562-19.605 2.04-8.401 10.019-14.898 18.672-15.095Z" transform="translate(16.887 -27.968)"/></symbol>
        <symbol id="github" viewBox="0 0 135.467 135.467"><path style="stroke-linecap:butt;stroke-linejoin:miter;stroke-miterlimit:4;stroke-dasharray:none;stroke-dashoffset:0;stroke-opacity:1" d="M47.164 112.094a10.553 10.553 0 0 0-10.576 10.576v114.315c0 5.859 4.717 10.576 10.576 10.576H161.48c5.859 0 10.576-4.717 10.576-10.576V122.67c0-5.86-4.717-10.576-10.576-10.576zm56.546 7.385c7.938-.068 15.89 1.3 22.946 4.059 14.47 5.658 26.114 16.27 33.078 30.153 3.183 6.342 5.109 12.702 6.08 20.076.382 2.895.378 11.961-.005 14.998-1.21 9.592-4.38 18.335-9.462 26.086-7.335 11.191-17.284 19.352-29.402 24.118-3.738 1.47-5.077 1.557-6.232.403l-.783-.784-.147-10.941c-.156-11.712-.217-12.325-1.5-15.208-.319-.714-1.024-1.858-1.568-2.542l-.989-1.245 1.981-.277c6.333-.886 11.266-2.622 15.523-5.461 5.177-3.453 8.366-8.812 9.934-16.689.516-2.592.739-9.869.373-12.201-.622-3.976-2.59-8.385-5.055-11.33l-.971-1.16.594-2.048c1.056-3.636.775-8.734-.71-12.876-.472-1.314-.624-1.504-1.35-1.691-2.248-.58-8.628 1.758-14.158 5.189-1.378.854-2.116 1.17-2.552 1.095-.338-.06-1.718-.34-3.067-.625-7.716-1.626-16.166-1.626-23.881 0-1.35.285-2.736.567-3.081.627-.453.078-1.108-.198-2.345-.991-4.933-3.162-11.916-5.718-14.483-5.302-.78.127-.835.21-1.413 2.103-.936 3.07-1.173 4.638-1.155 7.641.014 2.23.138 3.187.624 4.823l.606 2.04-.932 1.104c-2.443 2.898-4.47 7.438-5.09 11.401-.366 2.335-.143 9.614.374 12.198 1.24 6.2 3.643 11.13 6.994 14.349 2.52 2.419 6.581 4.766 10.554 6.099 1.726.58 6.344 1.558 8.52 1.806l1.383.158-.942 1.192c-1.224 1.548-2.108 3.442-2.578 5.522-.367 1.627-.402 1.68-1.385 2.043-2.165.802-3.298.98-6.329.993-3.105.014-3.165.003-4.781-.807-2.094-1.05-3.905-2.798-5.562-5.366-2.4-3.722-6.048-6.343-9.275-6.668-1.857-.187-3.242.213-3.242.937 0 .55 1.944 2.518 3.656 3.7.584.404 1.638 1.492 2.344 2.42 1.15 1.512 1.73 2.58 3.853 7.093 1.164 2.474 4.089 4.752 7.323 5.703.731.215 2.854.513 4.717.662 2.767.222 3.818.207 5.745-.077l2.359-.348.059 4.245c.12 8.532.067 8.99-1.137 9.778-.637.418-1.932.633-2.793.465-1.175-.23-6.205-2.323-9.038-3.761-14.857-7.546-26.593-21.861-31.185-38.04-1.592-5.608-2.202-10.323-2.208-17.055-.004-5.524.229-7.986 1.212-12.782 4.575-22.33 21.905-40.786 43.976-46.835 5.124-1.405 10.548-2.123 15.979-2.169z" transform="translate(-36.588 -112.094)"/></symbol>
        <symbol id="research-gate" viewBox="0 0 135.467 135.467"><path style="stroke-linecap:butt;stroke-linejoin:miter;stroke-miterlimit:4;stroke-dasharray:none;stroke-dashoffset:0;stroke-opacity:1" d="M-39.77 35.743a10.553 10.553 0 0 0-10.576 10.576v114.314c0 5.86 4.716 10.577 10.576 10.577H74.544c5.86 0 10.576-4.717 10.576-10.577V46.32c0-5.86-4.716-10.576-10.576-10.576zm87.237 21.853c4.222-.02 8.355 1.489 10.549 4.621 1.432 2.045 1.405 2.238-.533 3.7-1.944 1.466-2.174 1.433-4.684-.68-4.357-3.666-9.904-2.736-12.475 2.092-1.685 3.164-1.345 14.93.54 18.704 2.65 5.305 9.961 5.096 12.55-.359 2.396-5.05 2.023-6.085-2.193-6.085-3.332 0-3.683-.224-3.683-2.344 0-2.307.099-2.34 6.215-2.072l6.215.272-.077 5.539c-.096 6.954-1.793 10.587-5.908 12.643-6.86 3.428-15.762 1.185-18.829-4.745-2.208-4.27-1.995-21.697.31-25.479 2.32-3.802 7.219-5.786 12.003-5.807zM-8.79 79.589c22.522 0 28.604 1.968 32.486 10.515 4.22 9.29-.494 20.792-10.375 25.32l-3.374 1.548 5.216 7.804c7.967 11.921 12.81 17.221 17.838 19.523 2.823 1.292 4.358 2.544 4.193 3.42-.183.968-1.631 1.45-4.855 1.612-5.828.294-10.943-1.99-15.14-6.762-2.64-3.002-15.03-21.237-15.891-23.39-.145-.362-2.263-.877-4.706-1.145l-4.443-.487.3 12.28c.183 7.503.704 12.684 1.339 13.318.571.57 2.746 1.265 4.833 1.545 2.91.39 3.794.91 3.794 2.229 0 1.604-.939 1.72-13.877 1.72-12.305 0-13.844-.169-13.58-1.492.164-.821 1.737-1.96 3.496-2.532 5.303-1.724 5.52-2.928 5.52-30.501 0-27.934-.182-28.898-5.738-30.212-2.481-.587-3.44-1.301-3.44-2.563 0-1.654.899-1.75 16.404-1.75zm1.088 5.524v27.815l7.303-.331c7.783-.354 10.499-1.605 14.172-6.524 2.402-3.218 2.573-11.424.31-14.879-2.947-4.497-6.749-6.074-14.65-6.078Z" transform="translate(50.346 -35.743)"/></symbol>
        <symbol id="linkedin" viewBox="0 0 135.467 135.467"><path style="stroke-linecap:butt;stroke-linejoin:miter;stroke-miterlimit:4;stroke-dasharray:none;stroke-dashoffset:0;stroke-opacity:1" d="M38.849 146.112a10.553 10.553 0 0 0-10.576 10.576v114.314c0 5.86 4.716 10.577 10.576 10.577h114.314c5.86 0 10.576-4.717 10.576-10.577V156.688c0-5.86-4.716-10.576-10.576-10.576zm19.934 14.729c3.605-.02 7.243 1.344 10.163 4.098 3.782 3.568 5.324 8.76 4.118 13.875-.593 2.517-1.856 4.69-3.958 6.807-2.139 2.155-4.301 3.347-7.165 3.951-3.444.727-6.026.39-9.374-1.225-5.008-2.414-8.073-7.333-8.073-12.955 0-4.027 1.43-7.444 4.324-10.339 2.787-2.786 6.359-4.192 9.964-4.212zm64.196 33.95c2.94.008 6.189.217 7.761.572 4.264.96 8.137 3.012 10.804 5.72 4.311 4.382 6.69 10.353 7.77 19.509.426 3.623.669 42.29.272 43.612-.156.52-.651 1.3-1.102 1.73l-.818.785-9.05.077c-9.592.08-9.955.042-11.103-1.18l-.623-.662-.156-19.53c-.174-21.67-.176-21.693-1.959-25.363-1.621-3.336-3.925-5.109-7.433-5.72-6.724-1.17-11.561 2.34-13.872 10.07l-.681 2.278-.144 18.954c-.156 20.603-.084 19.715-1.686 20.692-.79.482-1.397.514-9.464.515-9.646.001-9.933-.047-10.91-1.87-.462-.861-.485-2.445-.484-33.78.001-32.14.012-32.896.518-33.725 1.001-1.642 1.185-1.67 10.893-1.67 8.472 0 8.814.02 9.56.55 1.304.93 1.561 1.759 1.561 5.027v2.954l1.017-1.283c1.432-1.808 3.935-4.04 5.726-5.108 2.03-1.21 6.081-2.52 9.08-2.935 1.11-.154 2.76-.222 4.523-.218zm-66.952 1.046c.946.004 2.022.013 3.248.024l8.853.076.718.663c1.518 1.402 1.445-.358 1.445 34.786 0 30.338-.03 32.475-.464 33.326-.255.5-.8 1.156-1.212 1.458-.715.525-1.12.552-9.41.615-8.396.063-8.693.049-9.618-.493-1.98-1.16-1.83 1.732-1.828-35.005 0-32.226.013-32.983.518-33.812.894-1.465 1.13-1.667 7.75-1.638z" transform="translate(-28.273 -146.112)"/></symbol>
        <symbol id="ep-logo" viewBox="0 0 58.951 98.697"><path d="M361.564 284.629a38.28 38.28 0 0 0-12.492 4.547l-162.385 93.752a38.28 38.28 0 0 0-19.138 33.148v187.506a38.28 38.28 0 0 0 19.139 33.148l162.384 93.754a38.28 38.28 0 0 0 38.276 0l162.386-93.754a38.28 38.28 0 0 0 19.137-33.148V416.076a38.28 38.28 0 0 0-19.137-33.148l-162.386-93.752a38.28 38.28 0 0 0-25.784-4.547zm6.647 81.892 124.11 71.655v143.308L368.21 653.14 244.1 581.484V438.176Z" transform="translate(-24.61 -25.54) scale(.14689)"/><path d="M126.027 189.19a5.622 5.622 0 0 0-5.623 5.62v29.956a5.622 5.622 0 0 0 5.623 5.623 5.622 5.622 0 0 0 5.623-5.623V194.81a5.622 5.622 0 0 0-5.623-5.622zM147.111 175.418a5.622 5.622 0 0 0-5.623 5.621 5.622 5.622 0 0 0 5.623 5.623h25.973a5.622 5.622 0 0 0 5.621-5.623 5.622 5.622 0 0 0-5.621-5.621zM173.732 131.691c-1.6 0-5.621 2.519-5.62 5.623v29.954a5.622 5.622 0 1 0 11.243 0v-29.954a5.622 5.622 0 0 0-5.623-5.623z" transform="translate(-120.404 -131.691)"/></symbol>
    </defs>
</svg>