<svg xmlns="http://www.w3.org/2000/svg" width="512" height="512" viewBox="0 0 135.467 135.467"><path style="opacity:1;vector-effect:none;fill:#e5e5cf;fill-opacity:.99215686;stroke:none;stroke-width:6.96500015;stroke-linecap:square;stroke-linejoin:miter;stroke-miterlimit:4;stroke-dasharray:none;stroke-dashoffset:0;stroke-opacity:1" d="M80.168 27.97c-9.837.009-19.674.03-29.509.009-19.281.002-38.562-.005-57.843.003-5.106.144-8.789 4.946-9.464 9.699-.496 4.72-.04 9.496-.196 14.236.032 33.524-.064 67.053.047 100.575.296 4.938 3.63 10.198 8.843 10.868 19.404.149 38.82.02 58.228.063 19.72-.025 39.443.05 59.162-.036 5.204-.508 8.65-5.66 9.051-10.56.19-11.53.02-23.07.078-34.603-.035-26.452.068-52.907-.051-79.357-.31-4.924-3.643-10.159-8.841-10.826-9.833-.073-19.669-.079-29.505-.07zM48.787 46.825c7.856.008 15.717-.01 23.57.241 6.85.163 14.37 1.083 19.622 5.93 4.524 3.89 6.625 9.818 7.174 15.62.92 11.754.446 23.562.561 35.34-.118 7.49.199 15.069-1.112 22.474-1.096 5.898-4.626 11.379-9.871 14.388-5.68 3.269-12.404 3.43-18.77 3.637-13.664.116-27.337.307-40.996-.117-6.857-.17-14.423-1.217-19.538-6.245-5.044-4.524-6.796-11.512-7.039-18.048-.615-13.5-.373-27.025-.287-40.535.218-7.796-.08-16.346 4.583-23.047 3.356-4.959 9.015-7.885 14.845-8.731 9.028-1.19 18.175-.743 27.258-.907Zm33.854 10.893c-.125-.002-.251 0-.378.007-1.672-.034-3.322.7-4.503 1.869-3.113 2.857-2.287 8.52 1.49 10.393 3.61 2.103 8.74-.256 9.477-4.373.942-3.796-2.212-7.837-6.086-7.896zm-31.817 8.269c-8.565-.064-16.928 3.849-22.496 10.35-6.766 7.747-8.929 18.925-5.709 28.612 3.591 11.597 14.96 20.182 27.037 20.456 9.238.461 18.415-3.679 24.236-10.878 7.365-8.77 8.795-21.88 3.581-32.108-4.89-9.962-15.557-16.563-26.65-16.432zm-.818 9.58c.859-.012 1.719.003 2.576.051 9.12.566 17.155 8.169 18.264 17.24 1.352 8.469-3.418 17.428-11.2 21.025-7.362 3.705-16.896 2.186-22.75-3.617-5.247-4.892-7.382-12.69-5.562-19.605 2.04-8.401 10.019-14.898 18.672-15.095Z" transform="translate(16.887 -27.968)"/></svg>