<svg xmlns="http://www.w3.org/2000/svg" width="512" height="512" viewBox="0 0 135.467 135.467"><path style="opacity:.98999999;vector-effect:none;fill:#e5e5cf;fill-opacity:1;stroke:none;stroke-width:2.4000001;stroke-linecap:butt;stroke-linejoin:miter;stroke-miterlimit:4;stroke-dasharray:none;stroke-dashoffset:0;stroke-opacity:1" d="M38.849 146.112a10.553 10.553 0 0 0-10.576 10.576v114.314c0 5.86 4.716 10.577 10.576 10.577h114.314c5.86 0 10.576-4.717 10.576-10.577V156.688c0-5.86-4.716-10.576-10.576-10.576zm19.934 14.729c3.605-.02 7.243 1.344 10.163 4.098 3.782 3.568 5.324 8.76 4.118 13.875-.593 2.517-1.856 4.69-3.958 6.807-2.139 2.155-4.301 3.347-7.165 3.951-3.444.727-6.026.39-9.374-1.225-5.008-2.414-8.073-7.333-8.073-12.955 0-4.027 1.43-7.444 4.324-10.339 2.787-2.786 6.359-4.192 9.964-4.212zm64.196 33.95c2.94.008 6.189.217 7.761.572 4.264.96 8.137 3.012 10.804 5.72 4.311 4.382 6.69 10.353 7.77 19.509.426 3.623.669 42.29.272 43.612-.156.52-.651 1.3-1.102 1.73l-.818.785-9.05.077c-9.592.08-9.955.042-11.103-1.18l-.623-.662-.156-19.53c-.174-21.67-.176-21.693-1.959-25.363-1.621-3.336-3.925-5.109-7.433-5.72-6.724-1.17-11.561 2.34-13.872 10.07l-.681 2.278-.144 18.954c-.156 20.603-.084 19.715-1.686 20.692-.79.482-1.397.514-9.464.515-9.646.001-9.933-.047-10.91-1.87-.462-.861-.485-2.445-.484-33.78.001-32.14.012-32.896.518-33.725 1.001-1.642 1.185-1.67 10.893-1.67 8.472 0 8.814.02 9.56.55 1.304.93 1.561 1.759 1.561 5.027v2.954l1.017-1.283c1.432-1.808 3.935-4.04 5.726-5.108 2.03-1.21 6.081-2.52 9.08-2.935 1.11-.154 2.76-.222 4.523-.218zm-66.952 1.046c.946.004 2.022.013 3.248.024l8.853.076.718.663c1.518 1.402 1.445-.358 1.445 34.786 0 30.338-.03 32.475-.464 33.326-.255.5-.8 1.156-1.212 1.458-.715.525-1.12.552-9.41.615-8.396.063-8.693.049-9.618-.493-1.98-1.16-1.83 1.732-1.828-35.005 0-32.226.013-32.983.518-33.812.894-1.465 1.13-1.667 7.75-1.638z" transform="translate(-28.273 -146.112)"/></svg>