<svg xmlns="http://www.w3.org/2000/svg" width="512" height="512" viewBox="0 0 135.467 135.467"><path style="opacity:.98999999;vector-effect:none;fill:#e5e5cf;fill-opacity:1;stroke:none;stroke-width:2.4000001;stroke-linecap:butt;stroke-linejoin:miter;stroke-miterlimit:4;stroke-dasharray:none;stroke-dashoffset:0;stroke-opacity:1" d="M-39.77 35.743a10.553 10.553 0 0 0-10.576 10.576v114.314c0 5.86 4.716 10.577 10.576 10.577H74.544c5.86 0 10.576-4.717 10.576-10.577V46.32c0-5.86-4.716-10.576-10.576-10.576zm87.237 21.853c4.222-.02 8.355 1.489 10.549 4.621 1.432 2.045 1.405 2.238-.533 3.7-1.944 1.466-2.174 1.433-4.684-.68-4.357-3.666-9.904-2.736-12.475 2.092-1.685 3.164-1.345 14.93.54 18.704 2.65 5.305 9.961 5.096 12.55-.359 2.396-5.05 2.023-6.085-2.193-6.085-3.332 0-3.683-.224-3.683-2.344 0-2.307.099-2.34 6.215-2.072l6.215.272-.077 5.539c-.096 6.954-1.793 10.587-5.908 12.643-6.86 3.428-15.762 1.185-18.829-4.745-2.208-4.27-1.995-21.697.31-25.479 2.32-3.802 7.219-5.786 12.003-5.807zM-8.79 79.589c22.522 0 28.604 1.968 32.486 10.515 4.22 9.29-.494 20.792-10.375 25.32l-3.374 1.548 5.216 7.804c7.967 11.921 12.81 17.221 17.838 19.523 2.823 1.292 4.358 2.544 4.193 3.42-.183.968-1.631 1.45-4.855 1.612-5.828.294-10.943-1.99-15.14-6.762-2.64-3.002-15.03-21.237-15.891-23.39-.145-.362-2.263-.877-4.706-1.145l-4.443-.487.3 12.28c.183 7.503.704 12.684 1.339 13.318.571.57 2.746 1.265 4.833 1.545 2.91.39 3.794.91 3.794 2.229 0 1.604-.939 1.72-13.877 1.72-12.305 0-13.844-.169-13.58-1.492.164-.821 1.737-1.96 3.496-2.532 5.303-1.724 5.52-2.928 5.52-30.501 0-27.934-.182-28.898-5.738-30.212-2.481-.587-3.44-1.301-3.44-2.563 0-1.654.899-1.75 16.404-1.75zm1.088 5.524v27.815l7.303-.331c7.783-.354 10.499-1.605 14.172-6.524 2.402-3.218 2.573-11.424.31-14.879-2.947-4.497-6.749-6.074-14.65-6.078Z" transform="translate(50.346 -35.743)"/></svg>